# xmcd CD database file
#
# Track frame offsets:
#	150
#	44085
#	72295
#	93858
#	127625
#	161390
#	219955
#	250248
#	266350
#	291060
#	310788
#
# Disc length: 4350 seconds
#
# Revision: 3
# Processed by: cddbd v1.4PL0 Copyright (c) Steve Scherf et al.
# Submitted via: CDex 1.50
#
DISCID=8f10fc0b
DTITLE=Big Joe Turner - Everyday I Have The Blues (Live)
DYEAR=1994
DGENRE=Blues
TTITLE0=Everyday I Have The Blues
TTITLE1=Early One Morning
TTITLE2=Hide And Go Seek
TTITLE3=The Night Time Is The Right Time
TTITLE4=Shoo Shoo Boogie Boo
TTITLE5=I've Got A Pocketful Of Pencils
TTITLE6=Stormy Monday Blues
TTITLE7=Roll 'Eme Pete
TTITLE8=Shake Rattle And Roll
TTITLE9=When The Sun Goes Down
TTITLE10=How Long Blues
EXTD=YEAR: 1994
EXTT0=
EXTT1=
EXTT2=
EXTT3=
EXTT4=
EXTT5=
EXTT6=
EXTT7=
EXTT8=
EXTT9=
EXTT10=
PLAYORDER=
